<?xml version="1.0" encoding="UTF-8"?><svg id="a" xmlns="http://www.w3.org/2000/svg" viewBox="0 0 83.5692 16.6224"><defs><style>.b{fill:#fae400;}</style></defs><path class="b" d="m65.3853,16.6224c-.3854,0-.6861-.1118-.8936-.3323-.1939-.2068-.2921-.5104-.2921-.9023,0-.4027.0982-.7117.2919-.9184.2111-.2111.5105-.3162.8939-.3162.3964,0,.6971.1064.8938.3162.2031.2029.3082.5133.3082.9184,0,.3942-.1051.6991-.3121.9061-.1894.2152-.4914.3284-.8898.3284Zm-12.8251-.2443c-.4445,0-.867-.0812-1.2559-.2413-.3768-.1485-.7203-.3754-1.0184-.6734-.2308-.2491-.4206-.5441-.5687-.8822-.2216.2407-.4535.4635-.692.6643-.4136.3466-.8504.6187-1.2987.8092-.4543.1929-.9268.2908-1.4043.2908-.3943,0-.7396-.059-1.0306-.1754-.2938-.1057-.5437-.2767-.737-.506-.1905-.2382-.3328-.5279-.4259-.8645-.0804-.3447-.1203-.7417-.1203-1.1869v-3.0294c0-.3559-.0506-.6626-.1503-.9118-.0951-.2476-.2455-.4259-.4607-.5474-.2169-.1378-.5084-.2053-.8744-.2053-.2621,0-.5339.0463-.8075.1375-.2577.0892-.5121.2422-.7542.4541-.2181.1818-.4172.4263-.5953.7298.0026.0695.0039.1404.0039.2128v5.2606c0,.2069-.0937.3673-.2709.4639-.139.0891-.3458.1355-.6217.1355-.2756,0-.4823-.0464-.6319-.1416-.1093-.0656-.2443-.2006-.2443-.4578v-5.1304c0-.3667-.0506-.679-.1503-.9281-.095-.2474-.2455-.4258-.4607-.5475-.213-.1259-.5116-.1889-.8906-.1889-.1766,0-.3615.0301-.5497.0895-.1952.0516-.3917.1426-.5923.2729-.1878.1287-.3724.3034-.5455.517-.168.2076-.3245.4679-.4657.7745v5.1409c0,.207-.0937.3674-.2709.4639-.139.0891-.3458.1355-.6216.1355-.2646,0-.466-.0463-.6157-.1416-.1093-.0656-.2443-.2006-.2443-.4578v-.6794c-.1289.1447-.2655.2801-.4089.4049-.3418.2962-.734.5212-1.166.669-.4264.1571-.9017.2375-1.4088.2375-.3931,0-.7384-.059-1.0294-.1754-.2938-.1056-.5438-.2766-.737-.506-.1774-.2216-.3129-.4878-.4057-.795-.1689.208-.3527.3988-.5494.57-.3418.2961-.734.5211-1.1661.669-.4264.1571-.9017.2375-1.4088.2375-.0111,0-.0219-.0002-.0326-.0008-.0154.0006-.0312.0008-.0472.0008-.2974,0-.5712-.0352-.8138-.1044-.2305-.0575-.4469-.1538-.6376-.2848-.1873-.1492-.3424-.3222-.4715-.5217-.0839-.1424-.1524-.2994-.2058-.4709-.0989.1361-.2049.2639-.3169.3822-.1946.2061-.4212.3863-.6734.5354-.2375.1471-.5048.2634-.7912.3437-.2855.0799-.5974.1205-.927.1205-.6549,0-1.2134-.1161-1.66-.3451-.4574-.2462-.8055-.6061-1.0381-1.0713-.0294-.0634-.0568-.1284-.0821-.1949-.1971.2612-.4166.4974-.6549.7049-.3417.2962-.7339.5211-1.1661.669-.4081.1504-.8616.2305-1.3441.237l-.0841.0002c-.5048-.0042-.9886-.0782-1.4345-.2197-.455-.1443-.8937-.3356-1.304-.5684-.2112-.1199-.4204-.2472-.6233-.3793-.0658.0489-.1323.0966-.1998.1431-.5028.3352-1.0555.5947-1.6451.7727-.5873.1885-1.2191.2845-1.875.2845-.5572,0-1.0725-.0682-1.5315-.2026-.4631-.1355-.8762-.3366-1.228-.5976-.3459-.2651-.6193-.5794-.8149-.9362-.1884-.3764-.2823-.7864-.2823-1.2246,0-.4612.1055-.8944.3136-1.2875.2103-.3975.5349-.7227.9644-.9665.4244-.2523.9643-.3812,1.6015-.3812.5162,0,1.0007.0743,1.4401.2208.4352.1451.8535.3429,1.2432.588.3926.2399.7765.5069,1.139.7924.2255.1777.4489.3555.6702.5331.2829-.352.5316-.751.7397-1.1873.2205-.4725.3915-1.0018.5076-1.5717.1275-.5741.1918-1.1969.1918-1.8541,0-1-.1128-1.9101-.3355-2.7051-.2212-.8006-.5456-1.4875-.9644-2.0424-.4166-.5622-.9376-.9992-1.5497-1.3-.6033-.3016-1.3111-.4543-2.1048-.4543-.4904,0-.9606.0686-1.3975.2038-.4357.135-.846.3401-1.2194.6098-.3661.2616-.7052.5848-1.0085.9612-.3048.3679-.565.7875-.7749,1.2491-.1993.4616-.3601.9764-.4766,1.5271-.1164.5397-.1754,1.13-.1754,1.7551,0,.425.027.873.0802,1.3316.0534.4584.129.9071.225,1.3334.0947.4107.2121.7846.3489,1.1107.1093.2458.1117.464.006.6453-.0784.1578-.2176.2844-.4083.3662-.1243.0573-.259.0875-.3962.0875-.0455,0-.0914-.0033-.1377-.0099-.2138-.0455-.3676-.1557-.4691-.3299-.2315-.3747-.4344-.8141-.6008-1.3022-.1553-.4987-.2778-1.0219-.3655-1.5594-.0773-.5518-.1163-1.1135-.1163-1.6733,0-.7794.0724-1.5255.2154-2.218.1548-.697.3786-1.3459.6658-1.9312.2868-.5957.6346-1.1395,1.0329-1.6152.412-.4791.8794-.8901,1.3906-1.2234.5096-.3434,1.0738-.6086,1.6748-.7867.5997-.1777,1.2412-.2678,1.9066-.2678,1.0633,0,2.0254.1974,2.8594.5866.8352.3897,1.5523.9542,2.1315,1.6782.5864.7192,1.0357,1.5946,1.3343,2.6007.3072.9985.4632,2.1338.4632,3.3725,0,.7689-.0781,1.5158-.2321,2.22-.1429.6927-.3613,1.3476-.6485,1.9443-.2589.5591-.5817,1.0735-.9594,1.5287.0121.0083.0242.0164.0362.0246.3616.2271.7493.4131,1.1474.5493.3993.1332.8325.2014,1.2863.2022.3311-.0008.6414-.0569.9215-.1669.2837-.1115.546-.2709.7795-.4739.2356-.2049.4436-.4494.618-.7265.1317-.1976.2477-.4045.3475-.6186v-4.8578c0-.2573.135-.3924.2483-.4603.1455-.0928.3469-.1391.6117-.1391.2757,0,.4824.0463.6319.1415.167.0908.2606.2512.2606.4579v5.2606c0,.3526.0549.6512.1632.8877.1041.2273.2551.3925.4617.5051.2204.115.4999.174.8279.174.2814,0,.5455-.0456.7852-.1354.2421-.0907.4618-.2133.6531-.3642.2017-.1615.3816-.3568.5337-.5799.1486-.2181.2752-.4538.3766-.7007v-5.0472c0-.2573.135-.3924.2483-.4603.1455-.0928.3522-.1391.6279-.1391.2648,0,.4662.0463.6157.1415.167.0908.2606.2512.2606.4579v5.6841c0,.5607.0984.8223.181.943.1098.1408.3426.2165.6854.2165.0113,0,.0223.0003.0333.0008.0153-.0005.0308-.0008.0464-.0008.3345,0,.6471-.0561.9293-.1669.2837-.1114.546-.2709.7795-.4739.2357-.2049.4437-.4494.618-.7265.1317-.1976.2478-.4045.3475-.6186v-4.8578c0-.2573.135-.3924.2483-.4603.1456-.0928.347-.1391.6117-.1391.2757,0,.4824.0463.6319.1415.1669.0907.2606.2511.2606.4579v5.6841c0,.5607.0985.8223.181.943.1098.1408.3426.2165.6854.2165.3377,0,.6504-.0561.9323-.1669.2837-.1114.546-.2709.7796-.4739.2356-.2047.4434-.4491.618-.7265.1317-.1976.2478-.4045.3475-.6186v-4.8578c0-.2571.135-.3922.2482-.4603.1459-.0928.3473-.1391.6118-.1391.2757,0,.4824.0463.6319.1415.1669.0906.2606.251.2606.4579v.4289c.0891-.1032.1815-.1978.2768-.2831.2305-.1959.4615-.3516.69-.4659.2388-.1252.4794-.213.712-.2595.2343-.0558.4617-.0849.6697-.0849.5778,0,1.1018.1098,1.5576.3265.4659.2214.8374.5747,1.104,1.0501.0052.0087.0104.0175.0156.0264.0329-.0449.0666-.0888.1008-.1316.3303-.4099.723-.7273,1.1678-.9441.4455-.2172.9427-.3272,1.4777-.3272.5782,0,1.0974.1101,1.5429.3272.4642.2205.8357.5738,1.1024,1.0493.2632.4574.3971,1.0678.3971,1.8125v3.1596c0,.5605.0985.8222.1811.9431.1099.1407.3427.2165.6854.2165.342,0,.6808-.0914,1.0112-.2717.3521-.1864.6929-.4541,1.0147-.7966.2466-.2624.488-.5628.7181-.8934-.0002-.0203-.0003-9.5564-.0003-9.5564,0-1.0739.1859-1.8859.5527-2.4132.3796-.5575.9654-.8409,1.7405-.8409.5006,0,.9229.1144,1.2552.3398.3326.2138.5811.5453.735.9829.1574.4163.2379.9468.2379,1.573,0,.5804-.0388,1.2011-.1153,1.8449-.0763.6328-.1925,1.291-.3452,1.9567-.1412.6622-.3236,1.3369-.5417,2.0025-.2179.6539-.4663,1.3052-.7386,1.9367-.2733.623-.5776,1.226-.9049,1.7935-.0401.0695-.0804.1382-.121.2062.0087.3627.0447.6771.107.9351.07.2896.1691.5197.2945.6836.1284.1557.291.2754.4795.3507.2043.0778.4462.1177.7164.1177.2152,0,.4234-.0396.6188-.1177.2112-.0805.4081-.1967.5879-.3464.1749-.1557.3321-.3588.4628-.6002.144-.2573.2529-.5534.3248-.8821.0841-.3471.1263-.7442.1263-1.1839,0-.2187-.0158-.4404-.0472-.6592-.0219-.2406-.054-.4704-.0963-.6923-.0375-.2061-.0835-.4005-.1371-.5803-.3084-.1693-.5568-.342-.739-.5136-.2217-.2216-.3323-.5045-.3323-.8446,0-.2164.0689-.439.2049-.6617.1681-.2523.4476-.3773.8342-.3773.3786,0,.7034.1581.9654.4699.1152.1316.2225.2882.3179.464.104.0363.2138.069.3271.0973.2849.0609.5958.0925.9183.0925.3331,0,.6653-.0369.9872-.1097.3337-.073.6331-.1727.8911-.2965.1546-.0714.2861-.1439.3935-.2165.0348-.1262.1122-.2278.2273-.2969.1455-.0928.3469-.1391.6117-.1391.2757,0,.4824.0463.6319.1415.167.0908.2606.2512.2606.4579v6.4007c0,.1654.0328.2857.095.3479.0648.0648.1392.095.234.095.095,0,.1703-.0116.2238-.0346.0651-.0329.1304-.0748.1848-.1201.0855-.0615.1657-.1205.2512-.1847.0608-.0507.1442-.0805.2344-.0805.062,0,.1283.014.1971.0416.1465.0533.2667.1391.3522.2532.1023.1144.1663.2519.1809.3974.0153.1534-.0236.2935-.1158.4163-.1276.186-.2976.3502-.5011.4818-.1842.1265-.3979.2276-.6314.2977-.2201.0695-.4461.1051-.6695.1051-.6144,0-1.0751-.1678-1.3692-.4988-.2789-.3274-.4191-.7822-.4191-1.3546v-5.1899c-.1042.0555-.2126.1077-.3245.156-.5731.2472-1.2158.3727-1.9101.3727-.2557,0-.504-.0204-.7415-.0609.032.1625.0591.329.081.4975.0764.5018.1155.9984.1155,1.4723,0,.4667-.0507.9342-.1507,1.3895-.1011.4494-.2602.8757-.4732,1.2678-.203.3836-.4671.728-.7841,1.0221-.319.2961-.6992.5324-1.1301.7025-.4195.1701-.902.2566-1.4327.2566ZM5.8763,12.4856c-.2151,0-.3975.0458-.542.1361-.155.0874-.267.1948-.3495.3322-.0818.1363-.1215.2826-.1215.4469,0,.2725.0811.495.248.6804.182.1915.4263.3405.723.4395.3157.1019.6701.1538,1.0518.1538.4464,0,.8829-.0683,1.2975-.2031.3205-.1042.6257-.2407.9103-.407l-.1316-.0999c-.3433-.2682-.69-.5175-1.0326-.7424-.3354-.2201-.6809-.4009-1.0266-.5371-.3264-.1326-.6712-.1995-1.0267-.1995ZM51.6481,1.6548c-.1058,0-.1905.0354-.2665.1113-.0574.0574-.1381.1847-.1965.4652-.0404.2325-.0614.5785-.0614,1.0228v5.84c.0049-.0153.0098-.0307.0146-.0461.2146-.6548.3938-1.3278.533-2.002.1502-.6872.2643-1.3878.3394-2.0843.0858-.7092.1292-1.4035.1292-2.0659,0-.3089-.0254-.5623-.0756-.7533-.0382-.1798-.0933-.3036-.166-.3764-.0705-.078-.148-.1113-.2502-.1113Zm30.0002,14.6907c-.6144,0-1.075-.1678-1.3693-.4987-.1929-.2263-.3194-.5134-.3791-.8582-.1405.1619-.2907.3125-.4488.4504-.3418.2962-.734.5211-1.1661.669-.4266.1571-.9018.2375-1.4088.2375-.3908,0-.7361-.059-1.0271-.1754-.2938-.1056-.5438-.2766-.737-.506-.1509-.1885-.2715-.4092-.3612-.6597-.0445.0603-.0897.1176-.1358.1718-.3749.4546-.7891.7683-1.2295.9305-.4186.1583-.8341.2389-1.2335.2389-.649,0-1.2334-.1567-1.737-.4657-.5075-.323-.9079-.8091-1.1924-1.4463-.2803-.6279-.4224-1.4246-.4224-2.3682,0-.5754.0563-1.1146.1672-1.6025.1115-.4901.27-.937.4711-1.3281.2172-.3999.4819-.7393.7888-1.012.3206-.2749.6838-.4882,1.0816-.636.3976-.1478.8402-.2228,1.3154-.2228.4643,0,.9452.0914,1.4294.2716.1871.0697.3684.1486.5415.2358.0478-.1532.1453-.2461.231-.3007.1496-.0953.3563-.1416.632-.1416.2624,0,.4581.0459.5977.1402.1217.0691.2623.2071.2623.4754v5.6679c0,.5607.0984.8224.181.943.1098.1408.3426.2165.6854.2165.3353,0,.6479-.0561.9301-.1669.2836-.1114.5459-.2709.7795-.474.2354-.2046.4434-.4491.618-.7265.1317-.1975.2478-.4044.3475-.6185v-4.8578c0-.2573.135-.3923.2482-.4603.1457-.0928.3471-.1391.6118-.1391.2756,0,.4822.0463.6318.1415.167.0907.2607.2511.2607.4579v6.4007c0,.1654.0328.2857.0951.3479.0647.0648.1391.095.2339.095.095,0,.1703-.0116.2238-.0346.0651-.0329.1304-.0748.1849-.1201.0852-.0615.1656-.1205.2514-.1848.0604-.0506.1439-.0803.2342-.0803.062,0,.1283.014.1971.0416.1464.0532.2667.1391.3522.2532.1023.1142.1663.2517.1809.3974.0152.1537-.0238.2937-.1158.4163-.1279.1862-.2979.3504-.5011.4818-.184.1264-.3978.2275-.6314.2977-.2201.0695-.4461.1051-.6694.1051Zm-8.8772-7.4431c-.2611,0-.5102.0406-.7403.1205-.2144.078-.4145.1981-.5924.3562-.1663.1568-.3192.3611-.4508.6038-.1204.2411-.2196.5342-.2922.8659-.0618.3301-.0937.7192-.0937,1.1514,0,.576.0683,1.0783.2031,1.4929.1293.3877.3241.6892.5785.8948.2612.2031.5828.3028.9806.3028.3608,0,.7009-.081,1.0106-.2409.32-.1701.6176-.443.8827-.81.1086-.149.2123-.3179.3087-.5032v-3.7876c-.2127-.1226-.422-.215-.6234-.2748-.3737-.1142-.7673-.1719-1.1714-.1719Zm7.9814-3.7297c-.3509,0-.6285-.0996-.8248-.2958-.1882-.2144-.2795-.511-.2795-.8899,0-.3898.0914-.6918.2716-.8976.2006-.2142.4794-.3206.8327-.3206.3448,0,.614.1079.8001.3207.1802.2061.2716.508.2716.8975.0121.3777-.0806.6776-.2756.8858-.1857.199-.4536.3-.7961.3Zm-20.5496,0c-.3509,0-.6284-.0996-.8247-.2958-.1882-.2146-.2795-.5112-.2795-.8899,0-.3896.0914-.6916.2715-.8975.2006-.2143.4795-.3207.8327-.3207.3449,0,.6142.1079.8002.3207.1801.206.2715.5079.2715.8975.0124.3774-.0803.6773-.2756.8858-.1856.199-.4535.3-.7961.3Zm-31.4126,0c-.3509,0-.6285-.0996-.8248-.2958-.1882-.2146-.2795-.5112-.2795-.8899,0-.3896.0914-.6916.2715-.8975.2006-.2143.4795-.3207.8328-.3207.345,0,.6142.1079.8002.3208.1801.206.2715.5079.2715.8974.0123.3774-.0804.6774-.2756.8858-.1855.199-.4535.3-.7961.3Z"/></svg>